<svg xmlns="http://www.w3.org/2000/svg" viewBox="0 0 360 240" role="img"><title>组合术式 · 两仪焰莲</title><defs><linearGradient id="sky" x2="0" y2="1"><stop stop-color="#263e40"/><stop offset="1" stop-color="#718775"/></linearGradient><radialGradient id="pearl"><stop stop-color="#d4e0c3"/><stop offset=".55" stop-color="#86b5a9"/><stop offset="1" stop-color="#2c6269"/></radialGradient><filter id="grain"><feTurbulence baseFrequency=".65" numOctaves="3" seed="7"/><feColorMatrix type="saturate" values="0"/><feComponentTransfer><feFuncA type="linear" slope=".09"/></feComponentTransfer><feBlend in="SourceGraphic" mode="soft-light"/></filter></defs><g filter="url(#grain)"><rect width="360" height="240" fill="url(#sky)"/><circle cx="292" cy="46" r="22" fill="#e5ddba" opacity=".55"/><path d="M0 182 60 148 139 187 237 134 360 171v70H0Z" fill="#1c3338" opacity=".4"/><g fill="#b74b37" stroke="#e5bb75" stroke-width="2"><path d="M180 170c-49-56-16-95 0-118 26 35 46 74 0 118Z"/><path d="M181 174c-55-6-84-42-94-75 57 2 99 24 94 75Z"/><path d="M179 174c55-6 84-42 94-75-57 2-99 24-94 75Z"/><path d="M180 176c-60 16-101 0-116-25 54-20 96-9 116 25Zm0 0c60 16 101 0 116-25-54-20-96-9-116 25Z"/></g><path d="M145 188h70" stroke="#d9b67b" stroke-width="5"/><g fill="#ddb46d"><circle cx="80" cy="75" r="3"/><circle cx="275" cy="163" r="4"/><circle cx="116" cy="185" r="2"/><circle cx="240" cy="53" r="3"/></g><path d="M0 223q95-24 185-7t175-2v26H0Z" fill="#172e31" opacity=".8"/></g></svg>