<svg xmlns="http://www.w3.org/2000/svg" viewBox="0 0 200 380"><defs><pattern id="grain" width="18" height="18" patternUnits="userSpaceOnUse"><path d="M2 4h3M12 13h2" stroke="#be984a" opacity=".09"/></pattern><radialGradient id="wash"><stop stop-color="#f8f1e2"/><stop offset="1" stop-color="#be984a" stop-opacity=".17"/></radialGradient></defs><rect width="200" height="380" rx="5" fill="#f4eedf"/><rect width="200" height="380" fill="url(#grain)"/><rect width="200" height="380" fill="url(#wash)"/><g stroke="#be984a" fill="none" stroke-width="1.2" opacity=".85"><path d="M14 110l35-44 26 31 25-47 30 50 21-23 36 33M12 306l42-48 33 40 20-29 29 29 24-47 28 55M17 320q42-10 80 0t86 0"/></g><g stroke="#be984a" fill="none"><rect x="9" y="9" width="182" height="362" rx="3" stroke-width="2"/><rect x="15" y="15" width="170" height="350"/><path d="M22 43V22h21M157 22h21v21M22 337v21h21M157 358h21v-21"/><circle cx="100" cy="190" r="52" stroke-width="2"/><circle cx="100" cy="190" r="43"/><rect x="72" y="162" width="56" height="56" transform="rotate(45 100 190)"/><path d="M86 172v36M98 169v42M110 172v36M80 182h38M80 198h38" stroke-width="2.2"/><path d="M100 126v-14M100 254v14M36 190H22M164 190h14"/></g></svg>
